<svg width="170.8" height="27.216" viewBox="0 0 170.8 27.216" xmlns="http://www.w3.org/2000/svg"><g id="svgGroup" stroke-linecap="round" fill-rule="evenodd" font-size="9pt" stroke="#000" stroke-width="0.25mm" fill="#030202" style="stroke:#000;stroke-width:0.25mm;fill:#030202"><path d="M 135.604 20.72 L 133.084 20.72 L 133.084 0 L 135.604 0 L 135.604 8.484 Q 136.388 7.336 137.592 6.58 A 4.92 4.92 0 0 1 139.587 5.877 A 6.327 6.327 0 0 1 140.42 5.824 A 6.503 6.503 0 0 1 141.838 5.969 Q 142.774 6.178 143.457 6.689 A 3.713 3.713 0 0 1 144.102 7.308 Q 145.257 8.715 145.317 10.978 A 9.454 9.454 0 0 1 145.32 11.228 L 145.32 20.72 L 142.8 20.72 L 142.8 11.508 A 5.495 5.495 0 0 0 142.706 10.461 Q 142.586 9.841 142.311 9.351 A 3.075 3.075 0 0 0 142.072 8.988 Q 141.344 8.036 140.028 8.036 A 3.704 3.704 0 0 0 138.148 8.559 A 4.924 4.924 0 0 0 137.578 8.946 Q 136.416 9.856 135.604 11.088 L 135.604 20.72 Z M 117.376 25.984 L 118.3 23.8 A 5.757 5.757 0 0 0 119.369 24.464 A 6.926 6.926 0 0 0 119.868 24.682 A 4.733 4.733 0 0 0 120.76 24.927 Q 121.348 25.032 122.052 25.032 Q 123.688 25.032 124.746 24.321 A 3.521 3.521 0 0 0 125.174 23.982 A 3.179 3.179 0 0 0 125.988 22.724 Q 126.308 21.856 126.308 20.636 L 126.308 18.844 A 4.423 4.423 0 0 1 125.748 19.399 Q 125.447 19.651 125.07 19.893 A 8.794 8.794 0 0 1 124.698 20.118 A 4.454 4.454 0 0 1 123.247 20.632 A 6.045 6.045 0 0 1 122.192 20.72 Q 120.54 20.72 119.056 19.866 A 6.226 6.226 0 0 1 117.014 17.951 A 7.682 7.682 0 0 1 116.648 17.36 A 7.051 7.051 0 0 1 115.888 15.225 A 9.809 9.809 0 0 1 115.724 13.384 A 8.977 8.977 0 0 1 115.981 11.198 A 7.471 7.471 0 0 1 116.634 9.492 A 7.198 7.198 0 0 1 118.332 7.358 A 6.845 6.845 0 0 1 119.084 6.804 Q 120.624 5.824 122.472 5.824 Q 123.704 5.824 124.712 6.244 A 7.197 7.197 0 0 1 125.784 6.795 A 5.879 5.879 0 0 1 126.448 7.28 L 126.448 6.16 L 128.744 6.16 L 128.744 20.384 Q 128.744 22.792 127.904 24.304 Q 127.064 25.816 125.566 26.516 A 7.227 7.227 0 0 1 123.717 27.082 A 9.868 9.868 0 0 1 122.052 27.216 Q 120.764 27.216 119.546 26.908 A 7.625 7.625 0 0 1 118.062 26.371 A 6.585 6.585 0 0 1 117.376 25.984 Z M 82.544 20.72 L 80.024 20.72 L 80.024 6.16 L 82.46 6.16 L 82.46 8.596 Q 83.244 7.42 84.462 6.622 A 4.848 4.848 0 0 1 86.452 5.887 A 6.336 6.336 0 0 1 87.36 5.824 A 6.503 6.503 0 0 1 88.778 5.969 Q 89.714 6.178 90.397 6.689 A 3.713 3.713 0 0 1 91.042 7.308 Q 92.197 8.715 92.257 10.978 A 9.454 9.454 0 0 1 92.26 11.228 L 92.26 20.72 L 89.74 20.72 L 89.74 11.508 Q 89.74 9.94 88.998 8.988 A 2.402 2.402 0 0 0 87.241 8.049 A 3.377 3.377 0 0 0 86.94 8.036 A 3.674 3.674 0 0 0 85.022 8.586 A 4.859 4.859 0 0 0 84.504 8.946 Q 83.356 9.856 82.544 11.088 L 82.544 20.72 Z M 95.34 19.544 L 96.404 17.444 A 5.196 5.196 0 0 0 97.284 18.039 Q 97.716 18.274 98.23 18.463 A 8.411 8.411 0 0 0 98.238 18.466 A 6.74 6.74 0 0 0 100.369 18.868 A 7.69 7.69 0 0 0 100.604 18.872 Q 102.114 18.872 102.91 18.392 A 2.167 2.167 0 0 0 102.97 18.354 A 2.086 2.086 0 0 0 103.399 17.992 A 1.415 1.415 0 0 0 103.768 17.024 A 1.994 1.994 0 0 0 103.68 16.423 A 1.739 1.739 0 0 0 103.474 15.988 A 1.788 1.788 0 0 0 103.214 15.682 Q 102.93 15.41 102.461 15.143 A 6.247 6.247 0 0 0 102.396 15.106 Q 101.688 14.714 100.408 14.265 A 29.011 29.011 0 0 0 100.128 14.168 Q 98.749 13.696 97.835 13.103 A 5.414 5.414 0 0 1 97.062 12.502 A 3.171 3.171 0 0 1 96.14 10.823 A 4.702 4.702 0 0 1 96.04 9.828 A 3.394 3.394 0 0 1 97.145 7.304 A 4.89 4.89 0 0 1 97.51 6.986 Q 98.743 6.011 100.774 5.854 A 10.508 10.508 0 0 1 101.584 5.824 A 11.422 11.422 0 0 1 102.829 5.889 Q 103.475 5.96 104.04 6.108 A 7.052 7.052 0 0 1 104.076 6.118 A 10.855 10.855 0 0 1 105.234 6.497 A 8.711 8.711 0 0 1 106.036 6.86 L 105.336 8.932 Q 104.58 8.484 103.614 8.204 Q 102.648 7.924 101.472 7.924 A 5.777 5.777 0 0 0 100.65 7.979 Q 100.231 8.039 99.892 8.166 A 2.383 2.383 0 0 0 99.26 8.512 A 2.61 2.61 0 0 0 98.88 8.869 Q 98.683 9.098 98.589 9.342 A 1.268 1.268 0 0 0 98.504 9.8 A 1.378 1.378 0 0 0 98.923 10.794 A 1.983 1.983 0 0 0 99.092 10.948 A 2.766 2.766 0 0 0 99.456 11.191 Q 100.107 11.564 101.388 11.984 Q 103.784 12.783 104.925 13.728 A 4.185 4.185 0 0 1 105.252 14.028 A 3.807 3.807 0 0 1 106.34 16.617 A 5.011 5.011 0 0 1 106.344 16.828 Q 106.344 18.718 104.874 19.839 A 4.654 4.654 0 0 1 104.762 19.922 A 5.615 5.615 0 0 1 102.977 20.755 Q 102.231 20.962 101.349 21.027 A 11.318 11.318 0 0 1 100.52 21.056 A 11.197 11.197 0 0 1 98.879 20.941 A 8.665 8.665 0 0 1 97.538 20.636 Q 96.302 20.246 95.465 19.638 A 5.104 5.104 0 0 1 95.34 19.544 Z M 159.796 19.544 L 160.86 17.444 A 5.196 5.196 0 0 0 161.74 18.039 Q 162.172 18.274 162.686 18.463 A 8.411 8.411 0 0 0 162.694 18.466 A 6.74 6.74 0 0 0 164.825 18.868 A 7.69 7.69 0 0 0 165.06 18.872 Q 166.57 18.872 167.366 18.392 A 2.167 2.167 0 0 0 167.426 18.354 A 2.086 2.086 0 0 0 167.855 17.992 A 1.415 1.415 0 0 0 168.224 17.024 A 1.994 1.994 0 0 0 168.136 16.423 A 1.739 1.739 0 0 0 167.93 15.988 A 1.788 1.788 0 0 0 167.67 15.682 Q 167.386 15.41 166.917 15.143 A 6.247 6.247 0 0 0 166.852 15.106 Q 166.144 14.714 164.864 14.265 A 29.011 29.011 0 0 0 164.584 14.168 Q 163.205 13.696 162.291 13.103 A 5.414 5.414 0 0 1 161.518 12.502 A 3.171 3.171 0 0 1 160.596 10.823 A 4.702 4.702 0 0 1 160.496 9.828 A 3.394 3.394 0 0 1 161.601 7.304 A 4.89 4.89 0 0 1 161.966 6.986 Q 163.199 6.011 165.23 5.854 A 10.508 10.508 0 0 1 166.04 5.824 A 11.422 11.422 0 0 1 167.285 5.889 Q 167.931 5.96 168.496 6.108 A 7.052 7.052 0 0 1 168.532 6.118 A 10.855 10.855 0 0 1 169.69 6.497 A 8.711 8.711 0 0 1 170.492 6.86 L 169.792 8.932 Q 169.036 8.484 168.07 8.204 Q 167.104 7.924 165.928 7.924 A 5.777 5.777 0 0 0 165.106 7.979 Q 164.687 8.039 164.348 8.166 A 2.383 2.383 0 0 0 163.716 8.512 A 2.61 2.61 0 0 0 163.336 8.869 Q 163.139 9.098 163.045 9.342 A 1.268 1.268 0 0 0 162.96 9.8 A 1.378 1.378 0 0 0 163.379 10.794 A 1.983 1.983 0 0 0 163.548 10.948 A 2.766 2.766 0 0 0 163.912 11.191 Q 164.563 11.564 165.844 11.984 Q 168.24 12.783 169.381 13.728 A 4.185 4.185 0 0 1 169.708 14.028 A 3.807 3.807 0 0 1 170.796 16.617 A 5.011 5.011 0 0 1 170.8 16.828 Q 170.8 18.718 169.33 19.839 A 4.654 4.654 0 0 1 169.218 19.922 A 5.615 5.615 0 0 1 167.433 20.755 Q 166.687 20.962 165.805 21.027 A 11.318 11.318 0 0 1 164.976 21.056 A 11.197 11.197 0 0 1 163.335 20.941 A 8.665 8.665 0 0 1 161.994 20.636 Q 160.758 20.246 159.921 19.638 A 5.104 5.104 0 0 1 159.796 19.544 Z M 36.652 15.708 L 36.652 8.876 L 34.132 8.876 L 34.132 6.692 L 36.708 6.692 L 37.24 2.1 L 39.172 2.1 L 39.172 6.692 L 43.204 6.692 L 43.204 8.876 L 39.172 8.876 L 39.172 15.904 A 6.036 6.036 0 0 0 39.219 16.687 Q 39.331 17.541 39.711 18.013 A 1.556 1.556 0 0 0 39.858 18.172 Q 40.544 18.816 41.496 18.816 Q 42.196 18.816 42.826 18.592 A 7.205 7.205 0 0 0 43.716 18.209 A 6.375 6.375 0 0 0 43.988 18.06 L 44.688 20.076 A 5.193 5.193 0 0 1 44.235 20.316 Q 44.01 20.422 43.746 20.526 A 12.142 12.142 0 0 1 43.176 20.734 Q 42.224 21.056 41.188 21.056 A 5.131 5.131 0 0 1 39.737 20.861 A 3.902 3.902 0 0 1 37.87 19.67 A 4.512 4.512 0 0 1 36.966 18.017 Q 36.753 17.337 36.684 16.515 A 9.738 9.738 0 0 1 36.652 15.708 Z M 150.22 15.708 L 150.22 8.876 L 147.7 8.876 L 147.7 6.692 L 150.276 6.692 L 150.808 2.1 L 152.74 2.1 L 152.74 6.692 L 156.772 6.692 L 156.772 8.876 L 152.74 8.876 L 152.74 15.904 A 6.036 6.036 0 0 0 152.787 16.687 Q 152.899 17.541 153.279 18.013 A 1.556 1.556 0 0 0 153.426 18.172 Q 154.112 18.816 155.064 18.816 Q 155.764 18.816 156.394 18.592 A 7.205 7.205 0 0 0 157.284 18.209 A 6.375 6.375 0 0 0 157.556 18.06 L 158.256 20.076 A 5.193 5.193 0 0 1 157.803 20.316 Q 157.578 20.422 157.314 20.526 A 12.142 12.142 0 0 1 156.744 20.734 Q 155.792 21.056 154.756 21.056 A 5.131 5.131 0 0 1 153.305 20.861 A 3.902 3.902 0 0 1 151.438 19.67 A 4.512 4.512 0 0 1 150.534 18.017 Q 150.321 17.337 150.252 16.515 A 9.738 9.738 0 0 1 150.22 15.708 Z M 0 20.664 L 0 1.176 Q 1.316 1.036 2.576 0.966 Q 3.836 0.896 5.46 0.896 A 13.61 13.61 0 0 1 7.516 1.043 Q 8.618 1.212 9.551 1.573 A 8.176 8.176 0 0 1 9.814 1.68 A 8.674 8.674 0 0 1 11.855 2.89 A 7.622 7.622 0 0 1 12.838 3.836 Q 14.028 5.208 14.602 7.014 A 12.392 12.392 0 0 1 15.154 10.093 A 14.422 14.422 0 0 1 15.176 10.892 A 12.686 12.686 0 0 1 14.761 14.167 A 11.704 11.704 0 0 1 14.588 14.756 Q 14 16.576 12.782 17.962 A 8.111 8.111 0 0 1 10.47 19.768 A 9.872 9.872 0 0 1 9.674 20.146 Q 7.917 20.888 5.518 20.94 A 16.854 16.854 0 0 1 5.152 20.944 A 52.355 52.355 0 0 1 4.012 20.932 Q 3.448 20.92 2.946 20.895 A 28.419 28.419 0 0 1 2.366 20.86 Q 1.176 20.776 0 20.664 Z M 28.784 7.336 L 28.784 6.16 L 31.08 6.16 L 31.08 17.192 Q 31.08 18.071 31.434 18.444 A 0.83 0.83 0 0 0 31.598 18.578 Q 32.116 18.9 32.732 18.9 L 32.2 20.86 A 6.56 6.56 0 0 1 32.158 20.86 Q 29.538 20.843 28.965 18.726 A 3.859 3.859 0 0 1 28.952 18.676 Q 28.308 19.572 27.202 20.314 Q 26.163 21.011 24.592 21.053 A 7.618 7.618 0 0 1 24.388 21.056 Q 22.568 21.056 21.084 20.132 A 6.425 6.425 0 0 1 19.008 18.025 A 7.818 7.818 0 0 1 18.718 17.514 A 7.624 7.624 0 0 1 17.982 15.29 A 10.26 10.26 0 0 1 17.836 13.524 A 9.28 9.28 0 0 1 18.115 11.209 A 7.831 7.831 0 0 1 18.718 9.604 Q 19.6 7.868 21.154 6.846 A 6.243 6.243 0 0 1 24.289 5.836 A 7.669 7.669 0 0 1 24.724 5.824 A 6.324 6.324 0 0 1 26.066 5.961 A 5.237 5.237 0 0 1 27.006 6.258 A 7.28 7.28 0 0 1 28.206 6.9 A 6.189 6.189 0 0 1 28.784 7.336 Z M 56.616 7.336 L 56.616 6.16 L 58.912 6.16 L 58.912 17.192 Q 58.912 18.071 59.266 18.444 A 0.83 0.83 0 0 0 59.43 18.578 Q 59.948 18.9 60.564 18.9 L 60.032 20.86 A 6.56 6.56 0 0 1 59.99 20.86 Q 57.37 20.843 56.797 18.726 A 3.859 3.859 0 0 1 56.784 18.676 Q 56.14 19.572 55.034 20.314 Q 53.995 21.011 52.424 21.053 A 7.618 7.618 0 0 1 52.22 21.056 Q 50.4 21.056 48.916 20.132 A 6.425 6.425 0 0 1 46.84 18.025 A 7.818 7.818 0 0 1 46.55 17.514 A 7.624 7.624 0 0 1 45.814 15.29 A 10.26 10.26 0 0 1 45.668 13.524 A 9.28 9.28 0 0 1 45.947 11.209 A 7.831 7.831 0 0 1 46.55 9.604 Q 47.432 7.868 48.986 6.846 A 6.243 6.243 0 0 1 52.121 5.836 A 7.669 7.669 0 0 1 52.556 5.824 A 6.324 6.324 0 0 1 53.898 5.961 A 5.237 5.237 0 0 1 54.838 6.258 A 7.28 7.28 0 0 1 56.038 6.9 A 6.189 6.189 0 0 1 56.616 7.336 Z M 75.264 20.72 L 72.604 20.72 L 72.604 1.12 L 75.264 1.12 L 75.264 20.72 Z M 2.66 3.332 L 2.66 18.48 Q 3.248 18.564 3.892 18.592 A 30.034 30.034 0 0 0 4.89 18.618 A 33.957 33.957 0 0 0 5.236 18.62 A 10.614 10.614 0 0 0 6.962 18.488 Q 7.9 18.333 8.667 17.997 A 5.608 5.608 0 0 0 9.352 17.64 Q 10.948 16.66 11.704 14.91 A 9.042 9.042 0 0 0 12.335 12.649 A 11.901 11.901 0 0 0 12.46 10.892 Q 12.46 8.876 11.704 7.112 Q 10.948 5.348 9.38 4.27 Q 7.912 3.261 5.683 3.196 A 10.642 10.642 0 0 0 5.376 3.192 Q 4.564 3.192 3.892 3.234 Q 3.22 3.276 2.66 3.332 Z M 112.224 20.72 L 109.704 20.72 L 109.704 6.16 L 112.224 6.16 L 112.224 20.72 Z M 28.56 16.996 L 28.56 9.184 Q 27.804 8.652 26.894 8.33 Q 25.984 8.008 24.976 8.008 A 4.459 4.459 0 0 0 23.584 8.219 A 3.927 3.927 0 0 0 22.61 8.694 A 4.564 4.564 0 0 0 21.205 10.213 A 5.59 5.59 0 0 0 21 10.598 Q 20.412 11.816 20.412 13.44 Q 20.412 15.008 21 16.226 Q 21.588 17.444 22.624 18.13 Q 23.66 18.816 24.948 18.816 Q 26.012 18.816 26.964 18.298 A 5.446 5.446 0 0 0 28.286 17.304 A 5.06 5.06 0 0 0 28.56 16.996 Z M 56.392 16.996 L 56.392 9.184 Q 55.636 8.652 54.726 8.33 Q 53.816 8.008 52.808 8.008 A 4.459 4.459 0 0 0 51.416 8.219 A 3.927 3.927 0 0 0 50.442 8.694 A 4.564 4.564 0 0 0 49.037 10.213 A 5.59 5.59 0 0 0 48.832 10.598 Q 48.244 11.816 48.244 13.44 Q 48.244 15.008 48.832 16.226 Q 49.42 17.444 50.456 18.13 Q 51.492 18.816 52.78 18.816 Q 53.844 18.816 54.796 18.298 A 5.446 5.446 0 0 0 56.118 17.304 A 5.06 5.06 0 0 0 56.392 16.996 Z M 126.224 16.8 L 126.224 9.184 Q 125.618 8.743 124.767 8.383 A 10.096 10.096 0 0 0 124.74 8.372 A 4.55 4.55 0 0 0 123.675 8.078 A 6.198 6.198 0 0 0 122.724 8.008 Q 121.576 8.008 120.568 8.624 A 4.406 4.406 0 0 0 119.224 9.92 A 5.493 5.493 0 0 0 118.93 10.402 A 4.984 4.984 0 0 0 118.438 11.783 Q 118.317 12.372 118.302 13.049 A 8.722 8.722 0 0 0 118.3 13.244 A 6.81 6.81 0 0 0 118.434 14.626 A 5.127 5.127 0 0 0 118.93 16.016 A 5.201 5.201 0 0 0 119.745 17.157 A 4.425 4.425 0 0 0 120.568 17.836 Q 121.576 18.48 122.752 18.48 A 4.277 4.277 0 0 0 124.034 18.293 A 3.81 3.81 0 0 0 124.768 17.976 A 5.839 5.839 0 0 0 125.603 17.412 A 4.567 4.567 0 0 0 126.224 16.8 Z M 109.742 3.161 A 1.672 1.672 0 0 0 110.964 3.668 A 2.289 2.289 0 0 0 111.383 3.631 A 1.581 1.581 0 0 0 112.252 3.178 A 1.618 1.618 0 0 0 112.651 2.487 A 2.103 2.103 0 0 0 112.728 1.904 A 2.034 2.034 0 0 0 112.728 1.881 A 1.697 1.697 0 0 0 112.21 0.658 A 2.072 2.072 0 0 0 112.194 0.642 A 1.696 1.696 0 0 0 110.964 0.14 A 2.314 2.314 0 0 0 110.5 0.184 A 1.585 1.585 0 0 0 109.676 0.616 A 1.565 1.565 0 0 0 109.264 1.353 A 2.236 2.236 0 0 0 109.2 1.904 Q 109.2 2.604 109.718 3.136 A 2.091 2.091 0 0 0 109.742 3.161 Z" vector-effect="non-scaling-stroke"/></g></svg>