<svg width="38.776" height="21.848" viewBox="0 0 38.776 21.848" xmlns="http://www.w3.org/2000/svg"><g id="svgGroup" stroke-linecap="round" fill-rule="evenodd" font-size="9pt" stroke="#1c6fb8" stroke-width="0.4mm" fill="#f9fffa" style="stroke:#1c6fb8;stroke-width:0.4mm;fill:#f9fffa"><path d="M 13.617 0 L 13.699 0 Q 13.833 0 13.975 0.099 A 0.899 0.899 0 0 1 14.041 0.15 Q 14.156 0.248 14.196 0.35 A 0.309 0.309 0 0 1 14.219 0.465 Q 14.219 0.518 14.115 0.752 A 6.241 6.241 0 0 1 14.109 0.766 A 11.345 11.345 0 0 0 14 1.02 Q 13.944 1.155 13.885 1.306 A 18.169 18.169 0 0 0 13.877 1.326 A 21 21 0 0 1 13.692 1.782 A 18.671 18.671 0 0 1 13.631 1.928 Q 13.512 2.206 13.482 2.292 A 0.654 0.654 0 0 0 13.481 2.297 A 12.449 12.449 0 0 1 14.982 1.363 A 14.978 14.978 0 0 1 15.777 0.971 A 6.393 6.393 0 0 1 17.639 0.429 A 5.85 5.85 0 0 1 18.375 0.383 A 3.734 3.734 0 0 1 19.51 0.561 Q 20.07 0.738 20.494 1.066 Q 20.918 1.395 21.178 1.887 Q 21.438 2.379 21.438 3.035 A 3.589 3.589 0 0 1 21.232 4.225 A 4.769 4.769 0 0 1 20.699 5.305 Q 19.332 7.355 17.199 8.654 A 10.791 10.791 0 0 1 12.606 10.199 A 4.738 4.738 0 0 1 13.795 11.539 Q 14.246 12.305 14.561 13.152 Q 14.875 14 15.066 14.902 A 41.31 41.31 0 0 0 15.477 16.652 A 83.125 83.125 0 0 1 15.791 17.896 A 8.611 8.611 0 0 0 16.188 19.113 A 3.923 3.923 0 0 0 16.506 19.72 A 2.921 2.921 0 0 0 16.953 20.262 Q 17.418 20.699 18.238 20.699 A 3.256 3.256 0 0 0 18.908 20.626 A 4.379 4.379 0 0 0 19.469 20.467 A 13.247 13.247 0 0 0 20.407 20.095 A 11.569 11.569 0 0 0 20.699 19.961 A 17.465 17.465 0 0 0 21.105 19.762 Q 21.422 19.6 21.67 19.455 A 7.933 7.933 0 0 1 21.808 19.376 Q 22.067 19.231 22.14 19.223 A 0.075 0.075 0 0 1 22.148 19.223 A 0.385 0.385 0 0 1 22.439 19.346 A 0.484 0.484 0 0 1 22.463 19.373 A 0.525 0.525 0 0 1 22.586 19.715 A 0.411 0.411 0 0 1 22.577 19.802 Q 22.566 19.854 22.54 19.89 A 0.198 0.198 0 0 1 22.449 19.961 A 7.882 7.882 0 0 1 22.009 20.287 Q 21.779 20.447 21.514 20.609 A 12.775 12.775 0 0 1 21.479 20.631 A 10.762 10.762 0 0 1 20.935 20.942 A 7.996 7.996 0 0 1 20.426 21.191 A 5.666 5.666 0 0 1 19.264 21.67 Q 18.648 21.848 17.992 21.848 A 3.588 3.588 0 0 1 17.173 21.759 A 2.427 2.427 0 0 1 16.037 21.164 A 4.627 4.627 0 0 1 15.238 20.155 A 5.998 5.998 0 0 1 14.861 19.4 A 13.372 13.372 0 0 1 14.379 18.031 A 16.764 16.764 0 0 1 14.109 16.994 Q 13.809 15.668 13.385 14.383 A 12.405 12.405 0 0 0 12.476 12.28 A 11.365 11.365 0 0 0 12.318 12.004 A 4.445 4.445 0 0 0 10.555 10.309 Q 9.789 12.332 8.914 14.273 Q 8.039 16.215 6.727 17.938 Q 6.18 18.676 5.469 19.305 Q 4.758 19.934 3.938 20.412 A 7.485 7.485 0 0 1 2.201 21.15 Q 1.285 21.41 0.356 21.41 Q 0.201 21.41 0.107 21.289 A 0.399 0.399 0 0 1 0.096 21.273 A 0.588 0.588 0 0 1 0.034 21.162 A 0.42 0.42 0 0 1 0 21 Q 0 20.645 0.301 20.59 A 975.544 975.544 0 0 1 0.858 20.484 A 806.128 806.128 0 0 1 1.381 20.385 A 4.304 4.304 0 0 0 2.013 20.212 A 5.432 5.432 0 0 0 2.434 20.043 A 7.386 7.386 0 0 0 4.676 18.457 A 12.696 12.696 0 0 0 6.412 16.215 A 20.125 20.125 0 0 0 7.738 13.645 A 66.398 66.398 0 0 0 8.507 11.775 A 56.846 56.846 0 0 0 8.777 11.074 Q 9.406 9.461 9.898 7.834 Q 10.391 6.207 11.02 4.594 A 0.523 0.523 0 0 1 11.027 4.501 Q 11.036 4.451 11.056 4.411 A 0.243 0.243 0 0 1 11.102 4.348 A 19.253 19.253 0 0 1 11.437 3.558 A 17.096 17.096 0 0 1 11.553 3.309 Q 11.785 2.816 12.059 2.324 A 21.024 21.024 0 0 1 10.5 3.131 Q 9.707 3.5 8.941 3.965 A 19.121 19.121 0 0 0 6.963 5.376 A 21.262 21.262 0 0 0 6.686 5.605 A 5.564 5.564 0 0 0 5.059 7.848 A 2.081 2.081 0 0 0 4.928 8.24 A 1.874 1.874 0 0 0 4.908 8.34 A 3.93 3.93 0 0 1 4.841 8.658 A 4.811 4.811 0 0 1 4.785 8.859 Q 4.758 8.969 4.648 9.037 A 0.481 0.481 0 0 1 4.549 9.085 A 0.368 0.368 0 0 1 4.43 9.105 A 0.339 0.339 0 0 1 4.355 9.096 Q 4.281 9.079 4.186 9.032 A 1.424 1.424 0 0 1 4.143 9.01 Q 3.965 8.914 3.965 8.777 A 4.886 4.886 0 0 1 4.209 7.224 A 4.575 4.575 0 0 1 4.334 6.891 A 7.131 7.131 0 0 1 5.291 5.264 A 8.345 8.345 0 0 1 6.645 3.896 A 15.749 15.749 0 0 1 8.203 2.789 Q 9.406 2.023 10.842 1.244 Q 12.277 0.465 13.617 0 Z M 38.773 1.176 Q 38.746 1.34 38.623 1.477 A 0.401 0.401 0 0 1 38.332 1.613 A 0.519 0.519 0 0 1 38.309 1.613 Q 38.063 1.613 37.816 1.586 A 4.526 4.526 0 0 0 37.44 1.561 A 5.255 5.255 0 0 0 37.297 1.559 Q 35.273 1.559 33.332 2.324 Q 31.391 3.09 29.764 4.402 A 14.371 14.371 0 0 0 26.934 7.465 A 12.917 12.917 0 0 0 25.156 11.184 A 12.015 12.015 0 0 0 24.842 12.469 A 23.398 23.398 0 0 0 24.637 13.754 Q 24.527 14.492 24.5 15.258 Q 24.473 16.023 24.582 16.762 A 8.091 8.091 0 0 0 24.924 18.184 A 4.398 4.398 0 0 0 25.594 19.441 A 5.148 5.148 0 0 0 25.949 19.865 A 2.109 2.109 0 0 0 26.252 20.134 A 1.876 1.876 0 0 0 26.359 20.207 A 2.383 2.383 0 0 0 26.776 20.402 Q 26.985 20.478 27.231 20.53 A 4.45 4.45 0 0 0 27.398 20.563 A 7.874 7.874 0 0 0 28 20.645 A 5.777 5.777 0 0 0 28.547 20.672 A 7.325 7.325 0 0 0 31.039 20.224 A 8.599 8.599 0 0 0 31.5 20.043 A 7.846 7.846 0 0 0 34.07 18.293 A 6.535 6.535 0 0 0 34.383 17.959 A 5.105 5.105 0 0 0 34.59 17.705 Q 34.809 17.418 35.055 17.09 A 0.495 0.495 0 0 1 35.169 16.973 A 0.405 0.405 0 0 1 35.41 16.898 Q 35.574 16.898 35.697 17.008 A 0.295 0.295 0 0 1 35.798 17.224 Q 35.799 17.255 35.795 17.289 A 0.523 0.523 0 0 1 35.793 17.309 A 0.062 0.062 0 0 1 35.791 17.323 Q 35.782 17.358 35.738 17.445 Q 35.164 18.43 34.316 19.236 Q 33.469 20.043 32.484 20.604 A 9.557 9.557 0 0 1 30.42 21.479 A 7.741 7.741 0 0 1 28.246 21.793 A 7.688 7.688 0 0 1 27.89 21.784 A 9.911 9.911 0 0 1 27.59 21.766 A 6.335 6.335 0 0 1 26.879 21.67 A 7.538 7.538 0 0 1 26.236 21.518 A 6.927 6.927 0 0 1 26.195 21.506 A 3.233 3.233 0 0 1 25.888 21.4 A 2.412 2.412 0 0 1 25.621 21.273 A 2.212 2.212 0 0 1 25.378 21.097 A 2.912 2.912 0 0 1 25.184 20.918 L 24.773 20.508 Q 23.543 19.141 23.297 17.322 A 13.67 13.67 0 0 1 23.174 15.487 A 14.443 14.443 0 0 1 23.297 13.617 A 16.417 16.417 0 0 1 23.516 12.305 Q 23.652 11.648 23.816 10.992 A 13.473 13.473 0 0 1 25.249 7.545 A 15.394 15.394 0 0 1 25.539 7.068 A 15.229 15.229 0 0 1 28.424 3.705 A 14.582 14.582 0 0 1 32.115 1.354 A 10.081 10.081 0 0 1 36.231 0.465 A 8.752 8.752 0 0 1 36.627 0.474 Q 36.847 0.484 37.096 0.505 A 17.39 17.39 0 0 1 37.406 0.533 Q 37.898 0.582 38.263 0.681 A 2.956 2.956 0 0 1 38.527 0.766 A 0.457 0.457 0 0 1 38.656 0.841 Q 38.791 0.956 38.774 1.168 A 0.637 0.637 0 0 1 38.773 1.176 Z M 20.07 3.035 A 1.365 1.365 0 0 0 20.04 2.739 A 0.985 0.985 0 0 0 19.893 2.393 A 1.388 1.388 0 0 0 19.428 1.969 A 2.092 2.092 0 0 0 18.813 1.736 Q 18.484 1.668 18.156 1.668 A 4.676 4.676 0 0 0 17.108 1.791 A 5.521 5.521 0 0 0 16.748 1.887 A 10.384 10.384 0 0 0 15.326 2.434 A 11.923 11.923 0 0 0 13.986 3.172 A 15.476 15.476 0 0 0 13.249 3.672 A 12.512 12.512 0 0 0 12.824 3.992 Q 12.332 5.305 11.881 6.59 A 998.138 998.138 0 0 1 10.965 9.187 A 20.95 20.95 0 0 0 13.412 8.654 Q 14.629 8.313 15.75 7.752 A 11.246 11.246 0 0 0 17.842 6.398 A 8.403 8.403 0 0 0 19.523 4.539 A 4.403 4.403 0 0 0 19.901 3.84 A 4.835 4.835 0 0 0 19.906 3.828 A 1.993 1.993 0 0 0 20.07 3.035 Z" vector-effect="non-scaling-stroke"/></g></svg>